<svg xmlns="http://www.w3.org/2000/svg" width="31.82" height="31.851" viewBox="0 0 31.82 31.851">
    <path data-name="패스 602" d="M31.82 29.769a.866.866 0 0 1-.419.684 3.567 3.567 0 0 1-1.29.513q-.87.2-1.787.373a20.5 20.5 0 0 1-2.346.264q-1.429.093-2.486.14t-2.719.078q-1.662.031-2.517.031h-4.692l-2.517-.031-2.719-.078-2.486-.143-2.342-.262-1.787-.373-1.29-.513L0 29.769q.062-2.734 3.418-4.832a21.206 21.206 0 0 1 8.514-2.781V21.13a8.206 8.206 0 0 1-2.8-2.02 9.825 9.825 0 0 1-1.861-3.06 17.882 17.882 0 0 1-.994-3.76 28.343 28.343 0 0 1-.311-4.335 7.815 7.815 0 0 1 .777-3.542 6.545 6.545 0 0 1 2.144-2.5A10.119 10.119 0 0 1 12.026.482 14.775 14.775 0 0 1 15.91 0a14.775 14.775 0 0 1 3.884.482 10.119 10.119 0 0 1 3.138 1.429 6.545 6.545 0 0 1 2.144 2.5 7.815 7.815 0 0 1 .777 3.542q0 10.876-5.966 13.237v.963a21.206 21.206 0 0 1 8.513 2.784q3.357 2.097 3.42 4.832z" style="fill:#fff"/>
</svg>
