<svg xmlns="http://www.w3.org/2000/svg" width="31.254" height="31.555" viewBox="0 0 31.254 31.555">
    <path data-name="패스 627" d="m36.069 7.392-3.921-3.921a1.812 1.812 0 0 0-2.5 0l-3.487 3.5H7.453a2.12 2.12 0 0 0-2.12 2.12v23.314a2.12 2.12 0 0 0 2.12 2.12H30.77a2.12 2.12 0 0 0 2.12-2.12V13.073l3.18-3.18a1.77 1.77 0 0 0-.001-2.501zM21.051 21.944l-4.441.986 1.06-4.4L27.792 8.389l3.423 3.423zM32.36 10.6l-3.423-3.42L30.9 5.22l3.423 3.423z" transform="translate(-5.333 -2.97)" style="fill:#474747"/>
</svg>
