<svg xmlns="http://www.w3.org/2000/svg" width="29.964" height="28.931" viewBox="0 0 29.964 28.931">
    <path data-name="패스 632" d="M25.265 5.333H8.733A2.066 2.066 0 0 0 6.667 7.4v24.8a2.066 2.066 0 0 0 2.066 2.066h16.532a2.066 2.066 0 0 0 2.067-2.066V26H17.65a1.033 1.033 0 1 1 0-2.066h9.682V7.4a2.066 2.066 0 0 0-2.067-2.067z" transform="translate(-6.667 -5.333)" style="fill:#fff"/>
    <path data-name="패스 633" d="M36.6 22.968a1.033 1.033 0 0 0-1.457 1.457l3.492 3.42h-5.3v2.066h5.3l-3.492 3.575a1.033 1.033 0 1 0 1.457 1.457l6.034-5.993z" transform="translate(-12.669 -9.246)" style="fill:#fff"/>
</svg>
