<svg xmlns="http://www.w3.org/2000/svg" width="73" height="25" viewBox="0 0 73 25">
    <g data-name="그룹 367" transform="translate(-651 -706)">
        <rect data-name="사각형 299" width="73" height="25" rx="2" transform="translate(651 706)" style="fill:#ffeb3b"/>
        <g data-name="그룹 359" transform="translate(-69 -89)">
            <rect data-name="사각형 295" width="11.41" height="8.241" rx="4.12" transform="translate(728.075 802.902)" style="fill:#ffeb3b"/>
            <g data-name="99FE484C5C3451F218">
                <path data-name="패스 644" d="M76.01 73.653h.833l-.416-1.183z" transform="translate(655.745 733.566)" style="fill:#3e2723"/>
                <path data-name="패스 645" d="M7.228 0C3.236 0 0 2.551 0 5.7a5.555 5.555 0 0 0 3.388 4.829c-.11.382-.712 2.456-.735 2.619 0 0-.015.122.065.169a.218.218 0 0 0 .172.01c.228-.032 2.641-1.724 3.058-2.015a9.143 9.143 0 0 0 1.28.087c3.992 0 7.228-2.551 7.228-5.7S11.219 0 7.228 0zM3.651 4.814c-.009.806.007 1.654-.006 2.448 0 .254-.15.329-.347.4a.131.131 0 0 1-.069 0c-.226-.044-.406-.125-.411-.406-.016-.793 0-1.642-.006-2.448-.191-.008-.464.008-.641 0a.391.391 0 0 1-.407-.405A.382.382 0 0 1 2.173 4c.652-.01 1.459-.01 2.111 0a.38.38 0 0 1 .41.4.391.391 0 0 1-.405.405c-.175.017-.447.001-.638.009zm3.5 2.811a.642.642 0 0 1-.265.058.342.342 0 0 1-.346-.183l-.208-.541H5.063l-.209.541a.343.343 0 0 1-.347.184.637.637 0 0 1-.265-.058c-.115-.053-.226-.2-.1-.592l1-2.626A.625.625 0 0 1 5.7 4a.63.63 0 0 1 .556.412l1 2.624c.122.39.012.539-.103.589zm2.107 0H7.922a.392.392 0 0 1-.4-.382v-2.83a.426.426 0 0 1 .851 0v2.45h.887a.383.383 0 1 1 0 .764zm3.266-.314a.417.417 0 0 1-.748.195L10.8 6.211l-.145.145v.91a.417.417 0 1 1-.834 0v-2.85a.417.417 0 0 1 .834 0v.894l1.165-1.164a.322.322 0 0 1 .231-.093.423.423 0 0 1 .41.388.327.327 0 0 1-.091.254l-.952.95L12.445 7a.417.417 0 0 1 .08.309z" style="fill:#3e2723" transform="translate(726.473 801)"/>
            </g>
        </g>
        <text transform="translate(676.5 712)" style="font-size:10px;font-family:MalgunGothicBold,Malgun Gothic;fill:#3e2723"><tspan x="0" y="11">공유하기</tspan></text>
    </g>
</svg>
