<svg xmlns="http://www.w3.org/2000/svg" width="302.5" height="22" viewBox="0 0 302.5 22">
    <g data-name="그룹 371">
        <path data-name="사각형 300" style="fill:#94a7b9" d="M0 0h302.5v22H0z"/>
        <g data-name="Icon ionic-ios-battery-full">
            <path data-name="패스 649" d="M292.267 6.795h-12.465a1.807 1.807 0 0 0-1.8 1.8v4.806a1.807 1.807 0 0 0 1.8 1.8h12.465a1.807 1.807 0 0 0 1.8-1.8V8.597a1.807 1.807 0 0 0-1.8-1.802zm.751 6.608a.753.753 0 0 1-.751.751h-12.465a.753.753 0 0 1-.751-.751V8.597a.753.753 0 0 1 .751-.751h12.465a.753.753 0 0 1 .751.751z"/>
            <path data-name="패스 650" d="M294.82 9.07v3.86c.6 0 1.2-1.04 1.2-1.93s-.599-1.93-1.2-1.93z"/>
            <path data-name="패스 651" d="M291.816 8.597h-11.563a.452.452 0 0 0-.451.451v3.9a.452.452 0 0 0 .451.451h11.563a.452.452 0 0 0 .451-.451v-3.9a.452.452 0 0 0-.451-.451z"/>
        </g>
        <text data-name="90%" transform="translate(259 5)" style="font-size:8px;font-family:MalgunGothicBold,Malgun Gothic"><tspan x="0" y="9">90%</tspan></text>
        <path data-name="Icon awesome-wifi" d="M255.823 8.786a7.534 7.534 0 0 0-10.205 0 .258.258 0 0 0-.006.372l.555.55a.263.263 0 0 0 .363.006 6.217 6.217 0 0 1 8.381 0 .263.263 0 0 0 .363-.006l.555-.55a.258.258 0 0 0-.006-.372zm-5.1 3.194a1.037 1.037 0 1 0 1.034 1.037 1.037 1.037 0 0 0-1.037-1.037zm3.281-1.354a4.974 4.974 0 0 0-6.568 0 .256.256 0 0 0-.009.375l.558.551a.264.264 0 0 0 .357.013 3.649 3.649 0 0 1 4.755 0 .264.264 0 0 0 .357-.013l.558-.551a.256.256 0 0 0-.008-.375z"/>
    </g>
</svg>
