<svg xmlns="http://www.w3.org/2000/svg" width="73" height="25" viewBox="0 0 73 25">
    <g data-name="그룹 370">
        <g data-name="그룹 369" transform="translate(-651 -706)">
            <rect data-name="사각형 299" width="73" height="25" rx="2" transform="translate(651 706)" style="fill:#e5f6ff"/>
            <text data-name="SMS 전송" transform="translate(675.5 712)" style="font-size:10px;font-family:MalgunGothicBold,Malgun Gothic;fill:#3e2723"><tspan x="0" y="11">SMS 전송</tspan></text>
            <path data-name="Icon awesome-sms" d="M6.5 2.25C2.908 2.25 0 4.613 0 7.529a4.685 4.685 0 0 0 1.447 3.317 6.456 6.456 0 0 1-1.391 2.431.2.2 0 0 0-.038.221.2.2 0 0 0 .182.122 5.8 5.8 0 0 0 3.568-1.3 7.74 7.74 0 0 0 2.726.492c3.589 0 6.5-2.363 6.5-5.279S10.086 2.25 6.5 2.25zm-3.243 6.9h-.31a.2.2 0 0 1-.2-.2v-.406a.2.2 0 0 1 .2-.2h.312c.152 0 .264-.089.264-.168a.134.134 0 0 0-.053-.1L2.911 7.6a.938.938 0 0 1-.338-.713 1.032 1.032 0 0 1 1.076-.98h.31a.2.2 0 0 1 .2.2v.406a.2.2 0 0 1-.2.2h-.312c-.152 0-.264.089-.264.168a.134.134 0 0 0 .053.1l.556.477a.938.938 0 0 1 .338.713 1.03 1.03 0 0 1-1.076.982zm4.868-.2a.2.2 0 0 1-.2.2h-.413a.2.2 0 0 1-.2-.2V7.219L6.68 8.635a.2.2 0 0 1-.363 0l-.632-1.416V8.95a.2.2 0 0 1-.2.2h-.409a.2.2 0 0 1-.2-.2V6.311a.407.407 0 0 1 .403-.411h.406a.4.4 0 0 1 .363.223l.449.9.449-.9a.407.407 0 0 1 .363-.223h.406a.407.407 0 0 1 .406.406zm1.226.2h-.316a.2.2 0 0 1-.2-.2v-.406a.2.2 0 0 1 .2-.2h.312c.152 0 .264-.089.264-.168a.134.134 0 0 0-.053-.1L9 7.6a.938.938 0 0 1-.338-.713 1.032 1.032 0 0 1 1.076-.98h.31a.2.2 0 0 1 .2.2v.406a.2.2 0 0 1-.2.2h-.31c-.152 0-.264.089-.264.168a.134.134 0 0 0 .053.1l.556.477a.938.938 0 0 1 .338.713 1.028 1.028 0 0 1-1.074.982z" transform="translate(659 710.473)" style="fill:#3e2723"/>
        </g>
    </g>
</svg>
