<svg xmlns="http://www.w3.org/2000/svg" width="16.606" height="16.606" viewBox="0 0 16.606 16.606">
    <g transform="translate(-8 -8)">
        <path data-name="패스 642" d="M16.3 8a8.3 8.3 0 1 0 8.3 8.3A8.3 8.3 0 0 0 16.3 8zm0 15.223a6.919 6.919 0 1 1 6.923-6.923 6.919 6.919 0 0 1-6.923 6.923z" style="fill:#e7e7e7"/>
        <path data-name="패스 643" d="M23.166 21.244a.9.9 0 0 1-.9-.9v-4.151a.9.9 0 0 1 1.8 0v4.152a.9.9 0 0 1-.9.9z" transform="translate(-6.863 -3.508)" style="fill:#e7e7e7"/>
        <circle data-name="타원 73" cx="1.038" cy="1.038" r="1.038" transform="translate(15.231 18.739)" style="fill:#e7e7e7"/>
    </g>
</svg>
