<svg xmlns="http://www.w3.org/2000/svg" width="28.556" height="34.901" viewBox="0 0 28.556 34.901">
    <path data-name="패스 108" d="M7.932 15.864h12.692V11.1a6.114 6.114 0 0 0-1.859-4.487 6.114 6.114 0 0 0-4.487-1.859 6.114 6.114 0 0 0-4.487 1.864A6.114 6.114 0 0 0 7.932 11.1zm20.624 2.38v14.278a2.37 2.37 0 0 1-2.38 2.38H2.38a2.3 2.3 0 0 1-1.686-.694A2.3 2.3 0 0 1 0 32.522V18.244a2.3 2.3 0 0 1 .694-1.686 2.3 2.3 0 0 1 1.686-.694h.793V11.1a10.687 10.687 0 0 1 3.272-7.828A10.687 10.687 0 0 1 14.278 0a10.687 10.687 0 0 1 7.833 3.272 10.687 10.687 0 0 1 3.272 7.828v4.759h.793a2.37 2.37 0 0 1 2.38 2.38z" style="fill:#303030"/>
</svg>
