<svg data-name="카카오 회원가입 폼" xmlns="http://www.w3.org/2000/svg" width="600" height="66" viewBox="0 0 600 66">
    <g data-name="그룹 35">
        <g data-name="사각형 61" style="fill:#fff;stroke:#4b4a4a">
            <path style="stroke:none" d="M0 0h600v66H0z"/>
            <path style="fill:none" d="M.5.5h599v65H.5z"/>
        </g>
        <text data-name="Text State" transform="translate(121 42)" style="font-family:SegoeUI,Segoe UI;fill:#474747;font-size:20px"><tspan x="0" y="0">Kakao</tspan><tspan y="0" style="font-family:MalgunGothic,Malgun Gothic">로</tspan><tspan y="0"> </tspan><tspan y="0" style="font-family:MalgunGothic,Malgun Gothic">회원가입</tspan></text>
        <text data-name="Text State" transform="translate(313 44)" style="fill:#8e8e8e;font-size:13px;font-family:MalgunGothic,Malgun Gothic"><tspan x="0" y="0">카카오로</tspan><tspan y="0" style="font-family:SegoeUI,Segoe UI"> </tspan><tspan y="0">인증하여</tspan><tspan y="0" style="font-family:SegoeUI,Segoe UI"> </tspan><tspan y="0">회원가입</tspan></text>
    </g>
    <g data-name="그룹 354" transform="translate(-642 -778.521)">
        <rect data-name="사각형 295" width="18" height="13" rx="6.5" transform="translate(729 804)" style="fill:#ffeb3b"/>
        <g data-name="99FE484C5C3451F218">
            <path data-name="패스 644" d="M76.01 74.336h1.313l-.657-1.866z" transform="translate(658.796 736.475)" style="fill:#3e2723"/>
            <path data-name="패스 645" d="M11.4 0C5.1 0 0 4.025 0 8.99c0 3.21 2.135 6.03 5.345 7.617-.174.6-1.123 3.874-1.16 4.132 0 0-.023.193.1.266a.344.344 0 0 0 .272.016c.36-.05 4.166-2.72 4.824-3.179a14.423 14.423 0 0 0 2.019.137c6.3 0 11.4-4.025 11.4-8.99S17.7 0 11.4 0zM5.759 7.594c-.014 1.272.011 2.609-.01 3.861-.007.4-.237.52-.548.634a.206.206 0 0 1-.11.008c-.356-.07-.64-.2-.649-.64-.025-1.251.008-2.591-.01-3.862-.3-.012-.731.012-1.011 0a.616.616 0 0 1-.641-.639.6.6 0 0 1 .648-.638c1.028-.015 2.3-.015 3.331 0a.6.6 0 0 1 .647.638.618.618 0 0 1-.639.639c-.277.011-.705-.013-1.008-.001zm5.526 4.435a1.013 1.013 0 0 1-.419.091.54.54 0 0 1-.548-.291l-.329-.853h-2l-.329.853a.541.541 0 0 1-.548.291 1 1 0 0 1-.418-.091c-.182-.083-.356-.314-.157-.934l1.576-4.142A.987.987 0 0 1 8.99 6.3a.994.994 0 0 1 .877.65l1.572 4.14c.201.625.026.86-.154.939zm3.324 0H12.5a.618.618 0 0 1-.63-.6V6.962a.672.672 0 0 1 1.343 0v3.865h1.4a.6.6 0 1 1 0 1.206zm5.153-.5a.658.658 0 0 1-1.18.307L17.039 9.8l-.228.228v1.435a.658.658 0 1 1-1.316 0V6.966a.658.658 0 0 1 1.316 0v1.41l1.835-1.835a.509.509 0 0 1 .365-.147.667.667 0 0 1 .647.612.515.515 0 0 1-.144.4l-1.5 1.5 1.619 2.146a.658.658 0 0 1 .126.487z" style="fill:#3e2723" transform="translate(726.473 801)"/>
        </g>
    </g>
</svg>
