<svg xmlns="http://www.w3.org/2000/svg" width="190" height="50" viewBox="0 0 190 50">
    <g data-name="그룹 360">
        <g data-name="그룹 17">
            <g data-name="사각형 59" style="fill:#fff;stroke:#d2d2d2">
                <path style="stroke:none" d="M0 0h190v50H0z"/>
                <path style="fill:none" d="M.5.5h189v49H.5z"/>
            </g>
            <text data-name="Text State" transform="translate(73.847 33)" style="fill:#868e96;font-size:18px;font-family:MalgunGothic,Malgun Gothic"><tspan x="0" y="0">카카오톡</tspan></text>
        </g>
        <g data-name="그룹 359" transform="translate(-676 -784.355)">
            <rect data-name="사각형 295" width="14.294" height="10.323" rx="5.162" transform="translate(728.48 803.382)" style="fill:#ffeb3b"/>
            <g data-name="99FE484C5C3451F218">
                <path data-name="패스 644" d="M76.01 73.952h1.043l-.521-1.482z" transform="translate(657.08 734.839)" style="fill:#3e2723"/>
                <path data-name="패스 645" d="M9.054 0C4.053 0 0 3.2 0 7.139a6.959 6.959 0 0 0 4.244 6.049c-.138.478-.891 3.077-.921 3.281 0 0-.018.153.081.212a.273.273 0 0 0 .216.013c.286-.04 3.308-2.16 3.831-2.525a11.453 11.453 0 0 0 1.6.109c5 0 9.054-3.2 9.054-7.139S14.055 0 9.054 0zM4.573 6.031c-.011 1.01.009 2.069-.008 3.069-.005.318-.188.413-.435.5a.164.164 0 0 1-.087.006c-.283-.056-.508-.157-.515-.508-.02-.993.006-2.057-.008-3.067-.239-.01-.581.01-.8 0a.489.489 0 0 1-.509-.508.479.479 0 0 1 .515-.507 72.661 72.661 0 0 1 2.641 0 .476.476 0 0 1 .514.507.49.49 0 0 1-.508.508c-.219.009-.559-.01-.8 0zm4.388 3.521a.8.8 0 0 1-.333.072.429.429 0 0 1-.435-.231l-.261-.677h-1.59l-.261.677a.43.43 0 0 1-.435.231.8.8 0 0 1-.332-.072c-.144-.066-.283-.252-.124-.742l1.252-3.289a.784.784 0 0 1 .7-.515.79.79 0 0 1 .7.516L9.084 8.81c.159.49.016.679-.123.742zm2.64 0H9.925a.491.491 0 0 1-.5-.479V5.528a.534.534 0 0 1 1.066 0V8.6H11.6a.48.48 0 1 1 0 .958zm4.092-.394a.522.522 0 0 1-.937.244l-1.225-1.621-.181.181V9.1a.522.522 0 1 1-1.045 0V5.532a.522.522 0 0 1 1.045 0v1.12l1.457-1.457a.4.4 0 0 1 .29-.117.529.529 0 0 1 .514.486.409.409 0 0 1-.114.318L14.3 7.071l1.286 1.7a.522.522 0 0 1 .1.387z" style="fill:#3e2723" transform="translate(726.473 801)"/>
            </g>
        </g>
    </g>
</svg>
