<svg xmlns="http://www.w3.org/2000/svg" width="38" height="38" viewBox="0 0 38 38">
    <g data-name="그룹 87">
        <g data-name="합치기 82" style="fill:#303030">
            <path d="M19 36.5c-2.79 0-5.456-.637-7.924-1.892l-.574-.292-.606.215-2.963 1.048.082-3.155.017-.64-.452-.455A17.392 17.392 0 0 1 1.5 19c0-4.674 1.82-9.069 5.126-12.374A17.386 17.386 0 0 1 19 1.5c4.675 0 9.069 1.82 12.374 5.126A17.386 17.386 0 0 1 36.5 19c0 4.674-1.82 9.07-5.126 12.375A17.385 17.385 0 0 1 19 36.5z" style="stroke:none"/>
            <path d="M19 35c4.274 0 8.292-1.664 11.314-4.686A15.895 15.895 0 0 0 35 19c0-4.274-1.664-8.292-4.686-11.314A15.894 15.894 0 0 0 19 3 15.896 15.896 0 0 0 7.686 7.686 15.895 15.895 0 0 0 3 19c0 4.251 1.65 8.254 4.645 11.272l.903.91-.059 2.255 2.12-.75 1.148.584A15.825 15.825 0 0 0 19 35m0 3c-3.097 0-6.02-.74-8.604-2.055L5.377 37.72l.138-5.336A18.941 18.941 0 0 1 0 19C0 8.507 8.507 0 19 0s19 8.507 19 19c0 10.494-8.507 19-19 19z" style="fill:#303030;stroke:none"/>
        </g>
        <g data-name="그룹 86">
            <path data-name="패스 86" d="m1568.763 2285.3 7.155-10.056 5.043 4.533h.545l7.087-5.526-7.632 11.584-5.043-4.868z" transform="translate(-1560.49 -2261.618)" style="fill:#fff"/>
        </g>
    </g>
</svg>
