<svg xmlns="http://www.w3.org/2000/svg" width="41" height="41" viewBox="0 0 41 41">
    <g data-name="그룹 137">
        <g data-name="그룹 136">
            <g data-name="그룹 52">
                <g data-name="패스 83" style="fill:#dedede">
                    <path d="M20.5 40.5a19.934 19.934 0 0 1-14.142-5.858A19.934 19.934 0 0 1 .5 20.5 19.934 19.934 0 0 1 6.358 6.358 19.934 19.934 0 0 1 20.5.5a19.934 19.934 0 0 1 14.142 5.858A19.934 19.934 0 0 1 40.5 20.5a19.934 19.934 0 0 1-5.858 14.142A19.934 19.934 0 0 1 20.5 40.5z" style="stroke:none"/>
                    <path d="M20.5 1A19.436 19.436 0 0 0 6.711 6.711 19.436 19.436 0 0 0 1 20.5a19.436 19.436 0 0 0 5.711 13.789A19.436 19.436 0 0 0 20.5 40a19.436 19.436 0 0 0 13.789-5.711A19.436 19.436 0 0 0 40 20.5a19.436 19.436 0 0 0-5.711-13.789A19.436 19.436 0 0 0 20.5 1m0-1C31.822 0 41 9.178 41 20.5S31.822 41 20.5 41 0 31.822 0 20.5 9.178 0 20.5 0z" style="fill:#dedede;stroke:none"/>
                </g>
            </g>
        </g>
    </g>
    <path data-name="패스 108" d="M5.038 10.077H13.1V7.054A3.883 3.883 0 0 0 11.919 4.2a3.883 3.883 0 0 0-2.85-1.181A3.883 3.883 0 0 0 6.219 4.2a3.883 3.883 0 0 0-1.181 2.85zm13.1 1.512v9.069a1.505 1.505 0 0 1-1.512 1.512H1.512a1.458 1.458 0 0 1-1.071-.441A1.458 1.458 0 0 1 0 20.657v-9.069a1.458 1.458 0 0 1 .441-1.071 1.458 1.458 0 0 1 1.071-.441h.5V7.054a6.788 6.788 0 0 1 2.082-4.976A6.788 6.788 0 0 1 9.069 0a6.788 6.788 0 0 1 4.975 2.078 6.788 6.788 0 0 1 2.078 4.975v3.023h.5a1.505 1.505 0 0 1 1.512 1.512z" transform="translate(11.432 9.416)" style="fill:#303030"/>
</svg>
