<svg xmlns="http://www.w3.org/2000/svg" width="41" height="41" viewBox="0 0 41 41">
    <g data-name="그룹 137">
        <g data-name="그룹 136">
            <g data-name="그룹 52">
                <g data-name="패스 83" style="fill:#dedede">
                    <path d="M20.5 40.5a19.934 19.934 0 0 1-14.142-5.858A19.934 19.934 0 0 1 .5 20.5 19.934 19.934 0 0 1 6.358 6.358 19.934 19.934 0 0 1 20.5.5a19.934 19.934 0 0 1 14.142 5.858A19.934 19.934 0 0 1 40.5 20.5a19.934 19.934 0 0 1-5.858 14.142A19.934 19.934 0 0 1 20.5 40.5z" style="stroke:none"/>
                    <path d="M20.5 1A19.436 19.436 0 0 0 6.711 6.711 19.436 19.436 0 0 0 1 20.5a19.436 19.436 0 0 0 5.711 13.789A19.436 19.436 0 0 0 20.5 40a19.436 19.436 0 0 0 13.789-5.711A19.436 19.436 0 0 0 40 20.5a19.436 19.436 0 0 0-5.711-13.789A19.436 19.436 0 0 0 20.5 1m0-1C31.822 0 41 9.178 41 20.5S31.822 41 20.5 41 0 31.822 0 20.5 9.178 0 20.5 0z" style="fill:#dedede;stroke:none"/>
                </g>
            </g>
        </g>
    </g>
    <path data-name="패스 110" d="M11.045 4h12.536a1.045 1.045 0 0 1 1.045 1.045v9.4L19.4 10.268V13.4h-6.266v2.089H19.4v3.134l5.223-4.179v9.4a1.045 1.045 0 0 1-1.045 1.045H11.045A1.045 1.045 0 0 1 10 23.849V5.045A1.045 1.045 0 0 1 11.045 4z" transform="translate(3.188 6.053)" style="fill:#303030"/>
</svg>
