<svg xmlns="http://www.w3.org/2000/svg" width="39" height="28.489" viewBox="0 0 39 28.489">
    <path d="M11.1 15.494a6.547 6.547 0 0 0 6.475-6.622A6.547 6.547 0 0 0 11.1 2.25a6.547 6.547 0 0 0-6.475 6.622 6.547 6.547 0 0 0 6.475 6.622zm4.44 1.892h-.48a8.762 8.762 0 0 1-7.92 0h-.48A6.739 6.739 0 0 0 0 24.2v1.7a2.808 2.808 0 0 0 2.775 2.838h16.65A2.808 2.808 0 0 0 22.2 25.9v-1.7a6.739 6.739 0 0 0-6.66-6.814zm12.21-1.892a5.616 5.616 0 0 0 5.55-5.676 5.551 5.551 0 1 0-11.1 0 5.616 5.616 0 0 0 5.55 5.676zm2.775 1.892h-.22a7.139 7.139 0 0 1-5.111 0h-.22a6.314 6.314 0 0 0-3.22.911 8.759 8.759 0 0 1 2.3 5.9v2.27c0 .13-.029.254-.035.378h10.21A2.808 2.808 0 0 0 37 24.009a6.547 6.547 0 0 0-6.475-6.622z" transform="translate(1 -1.25)" style="fill:#303030;stroke:#303030;stroke-width:2px"/>
</svg>
