<svg xmlns="http://www.w3.org/2000/svg" width="41" height="41" viewBox="0 0 41 41">
    <g data-name="그룹 52">
        <g data-name="패스 83" style="fill:#b6d6f2">
            <path d="M20.5 40.5a19.934 19.934 0 0 1-14.142-5.858A19.934 19.934 0 0 1 .5 20.5 19.934 19.934 0 0 1 6.358 6.358 19.934 19.934 0 0 1 20.5.5a19.934 19.934 0 0 1 14.142 5.858A19.934 19.934 0 0 1 40.5 20.5a19.934 19.934 0 0 1-5.858 14.142A19.934 19.934 0 0 1 20.5 40.5z" style="stroke:none"/>
            <path d="M20.5 1A19.436 19.436 0 0 0 6.711 6.711 19.436 19.436 0 0 0 1 20.5a19.436 19.436 0 0 0 5.711 13.789A19.436 19.436 0 0 0 20.5 40a19.436 19.436 0 0 0 13.789-5.711A19.436 19.436 0 0 0 40 20.5a19.436 19.436 0 0 0-5.711-13.789A19.436 19.436 0 0 0 20.5 1m0-1C31.822 0 41 9.178 41 20.5S31.822 41 20.5 41 0 31.822 0 20.5 9.178 0 20.5 0z" style="fill:#dedede;stroke:none"/>
        </g>
        <ellipse data-name="타원 4" cx="5.323" cy="5.619" rx="5.323" ry="5.619" transform="translate(15.392 7.696)" style="fill:#fff"/>
        <path data-name="빼기 1" d="M22.361 10.873H0a11.261 11.261 0 0 1 3.4-7.7 11.134 11.134 0 0 1 15.566 0 11.259 11.259 0 0 1 3.4 7.7z" transform="translate(9.521 20.556)" style="fill:#fff"/>
    </g>
</svg>
