<svg xmlns="http://www.w3.org/2000/svg" width="41" height="41" viewBox="0 0 41 41">
    <g data-name="그룹 137">
        <g data-name="그룹 136">
            <g data-name="그룹 52">
                <g data-name="패스 83" style="fill:#dedede">
                    <path d="M20.5 40.5a19.934 19.934 0 0 1-14.142-5.858A19.934 19.934 0 0 1 .5 20.5 19.934 19.934 0 0 1 6.358 6.358 19.934 19.934 0 0 1 20.5.5a19.934 19.934 0 0 1 14.142 5.858A19.934 19.934 0 0 1 40.5 20.5a19.934 19.934 0 0 1-5.858 14.142A19.934 19.934 0 0 1 20.5 40.5z" style="stroke:none"/>
                    <path d="M20.5 1A19.436 19.436 0 0 0 6.711 6.711 19.436 19.436 0 0 0 1 20.5a19.436 19.436 0 0 0 5.711 13.789A19.436 19.436 0 0 0 20.5 40a19.436 19.436 0 0 0 13.789-5.711A19.436 19.436 0 0 0 40 20.5a19.436 19.436 0 0 0-5.711-13.789A19.436 19.436 0 0 0 20.5 1m0-1C31.822 0 41 9.178 41 20.5S31.822 41 20.5 41 0 31.822 0 20.5 9.178 0 20.5 0z" style="fill:#dedede;stroke:none"/>
                </g>
            </g>
        </g>
    </g>
    <path data-name="패스 109" d="M12 .333a11.549 11.549 0 0 1 8.487 3.521A11.572 11.572 0 0 1 24 12.333a11.572 11.572 0 0 1-3.513 8.479A11.549 11.549 0 0 1 12 24.333a11.549 11.549 0 0 1-8.487-3.521A11.572 11.572 0 0 1 0 12.333a11.572 11.572 0 0 1 3.513-8.479A11.549 11.549 0 0 1 12 .333zm1.208 20.394v-2.366h-2.417v2.366zm2.473-9.3a3.692 3.692 0 0 0 1.124-2.7 4.616 4.616 0 0 0-1.405-3.38A4.626 4.626 0 0 0 12 3.939a4.626 4.626 0 0 0-3.4 1.408 4.616 4.616 0 0 0-1.405 3.38h2.416a2.341 2.341 0 0 1 .7-1.718 2.371 2.371 0 0 1 3.372 0 2.341 2.341 0 0 1 .7 1.718 2.207 2.207 0 0 1-.731 1.69L12.2 11.939a4.616 4.616 0 0 0-1.405 3.38v.62h2.417A4.95 4.95 0 0 1 13.517 14a4.513 4.513 0 0 1 1.1-1.437z" style="fill:#303030" transform="translate(8.501 8.167)"/>
</svg>
