<svg xmlns="http://www.w3.org/2000/svg" width="10.077" height="10.077" viewBox="0 0 10.077 10.077">
    <g data-name="그룹 112">
        <path data-name="패스 98" d="M3.662 0a.443.443 0 0 1 .455.433l-.008 2.605 2.739-.007a.443.443 0 0 1 .455.433.449.449 0 0 1-.458.435l-2.739.007L4.1 6.512a.449.449 0 0 1-.458.435.443.443 0 0 1-.455-.433l.008-2.605-2.74.007A.443.443 0 0 1 0 3.483a.449.449 0 0 1 .458-.435L3.2 3.041V.435A.449.449 0 0 1 3.662 0z" transform="rotate(45 2.456 5.93)" style="fill:#fff"/>
    </g>
</svg>
