<svg xmlns="http://www.w3.org/2000/svg" width="25.436" height="25.456" viewBox="0 0 25.436 25.456">
    <path data-name="패스 585" d="M20.451 19.133a.556.556 0 0 1-.27.439 2.293 2.293 0 0 1-.829.33q-.559.13-1.148.24a13.173 13.173 0 0 1-1.508.17q-.919.06-1.6.09t-1.748.05q-1.068.02-1.618.02H8.718L7.1 20.451 5.352 20.4l-1.6-.09-1.508-.17L1.1 19.9l-.829-.33L0 19.133q.04-1.758 2.2-3.106a13.63 13.63 0 0 1 5.469-1.787v-.659a5.274 5.274 0 0 1-1.8-1.3 6.315 6.315 0 0 1-1.2-1.967A11.493 11.493 0 0 1 4.034 7.9a18.217 18.217 0 0 1-.2-2.786 5.023 5.023 0 0 1 .5-2.277 4.207 4.207 0 0 1 1.378-1.609A6.5 6.5 0 0 1 7.729.31a9.5 9.5 0 0 1 2.5-.31 9.5 9.5 0 0 1 2.5.31 6.5 6.5 0 0 1 2.017.919 4.207 4.207 0 0 1 1.378 1.608 5.023 5.023 0 0 1 .5 2.277q0 6.99-3.835 8.508v.619a13.63 13.63 0 0 1 5.472 1.787q2.15 1.348 2.19 3.105z" style="fill:#dedede" transform="translate(0 4.984)"/>
    <g data-name="그룹 112">
        <path data-name="패스 98" d="M16.984 12a.623.623 0 0 1 .623.623v3.738h3.738a.623.623 0 0 1 0 1.246h-3.738v3.738a.623.623 0 0 1-1.246 0v-3.738h-3.738a.623.623 0 0 1 0-1.246h3.738v-3.738a.623.623 0 0 1 .623-.623z" transform="translate(3.467 -12)" style="fill:#dedede"/>
    </g>
</svg>
