<svg xmlns="http://www.w3.org/2000/svg" width="15.294" height="18.693" viewBox="0 0 15.294 18.693">
    <path d="M4.248 8.5h6.8V5.948a3.274 3.274 0 0 0-1-2.4 3.274 3.274 0 0 0-2.4-1 3.274 3.274 0 0 0-2.4 1 3.274 3.274 0 0 0-1 2.4zm11.046 1.271v7.647a1.269 1.269 0 0 1-1.274 1.274H1.274a1.229 1.229 0 0 1-.9-.372 1.229 1.229 0 0 1-.372-.9V9.771a1.229 1.229 0 0 1 .372-.9 1.229 1.229 0 0 1 .9-.372H1.7V5.948a5.724 5.724 0 0 1 1.752-4.2A5.724 5.724 0 0 1 7.647 0a5.724 5.724 0 0 1 4.2 1.752 5.724 5.724 0 0 1 1.752 4.2V8.5h.425a1.269 1.269 0 0 1 1.274 1.274z" style="fill:#0069d9"/>
</svg>
