<svg xmlns="http://www.w3.org/2000/svg" width="22.798" height="18.143" viewBox="0 0 22.798 18.143">
    <path data-name="패스 607" d="M20.291 11.287v6.788a.918.918 0 0 1-.905.905h-5.43v-5.43h-3.62v5.43h-5.43A.918.918 0 0 1 4 18.074v-6.787a.193.193 0 0 1 .007-.042.193.193 0 0 0 .007-.042l8.131-6.7 8.131 6.7a.2.2 0 0 1 .015.084zm3.153-.976-.877 1.046a.481.481 0 0 1-.3.156h-.042a.435.435 0 0 1-.3-.1l-9.779-8.158-9.785 8.159a.526.526 0 0 1-.339.1.481.481 0 0 1-.3-.156l-.875-1.047a.459.459 0 0 1-.1-.332.411.411 0 0 1 .156-.3L11.071 1.2a1.755 1.755 0 0 1 2.149 0l3.45 2.885V1.332a.436.436 0 0 1 .453-.453h2.715a.436.436 0 0 1 .453.453V7.1l3.1 2.574a.411.411 0 0 1 .156.3.459.459 0 0 1-.103.337z" transform="translate(-.747 -.837)" style="fill:#303030"/>
</svg>
