<svg xmlns="http://www.w3.org/2000/svg" width="14.798" height="19.026" viewBox="0 0 14.798 19.026">
    <path data-name="패스 608" d="M14.009 25.854a1.168 1.168 0 0 0 1.163 1.062H25.52a1.168 1.168 0 0 0 1.168-1.168V11.173a1.168 1.168 0 0 0-1.062-1.163v14.681a1.168 1.168 0 0 1-1.168 1.168H14.116q-.054 0-.107-.005z" transform="translate(-11.89 -7.89)" style="fill:#303030;fill-rule:evenodd"/>
    <path data-name="패스 609" d="M10 7.168A1.168 1.168 0 0 1 11.168 6h10.348a1.168 1.168 0 0 1 1.168 1.168v14.576a1.168 1.168 0 0 1-1.168 1.168H11.168A1.168 1.168 0 0 1 10 21.744zm3.53 11.1a.854.854 0 0 1 0-1.365 4.63 4.63 0 0 1 5.624 0 .854.854 0 0 1 0 1.365 4.631 4.631 0 0 1-5.624 0zm2.81-3.135a2.5 2.5 0 0 0 2.175-2.721 2.5 2.5 0 0 0-2.175-2.72 2.5 2.5 0 0 0-2.175 2.721 2.5 2.5 0 0 0 2.175 2.721z" style="fill:#303030;fill-rule:evenodd" transform="translate(-10 -6)"/>
</svg>
