<svg xmlns="http://www.w3.org/2000/svg" width="22.766" height="19.731" viewBox="0 0 22.766 19.731">
    <path data-name="패스 605" d="M16.589 30.645a.759.759 0 0 1-.377-.1l-6.643-3.8a.379.379 0 0 0-.569.332v3.568a.759.759 0 0 0 .39.664l6.83 3.791a.759.759 0 0 0 .737 0l6.83-3.794a.759.759 0 0 0 .39-.664v-3.565a.379.379 0 0 0-.569-.329l-6.643 3.8a.759.759 0 0 1-.376.097z" transform="translate(-5.205 -15.468)" style="fill:#303030"/>
    <path data-name="패스 606" d="M24.261 11.259v-.005a.759.759 0 0 0-.379-.582L13.258 4.6a.759.759 0 0 0-.753 0L1.88 10.671a.759.759 0 0 0 0 1.318l10.62 6.07a.759.759 0 0 0 .753 0l9.347-5.341a.095.095 0 0 1 .142.083v6.855a.774.774 0 0 0 .722.779.759.759 0 0 0 .8-.758V11.33a.7.7 0 0 0 0-.071z" transform="translate(-1.498 -4.5)" style="fill:#303030"/>
</svg>
