<svg xmlns="http://www.w3.org/2000/svg" width="18.566" height="18.566" viewBox="0 0 18.566 18.566">
    <path data-name="패스 604" d="m18.308 15.439-2.618 2.6a1.894 1.894 0 0 1-1.4.531 12.107 12.107 0 0 1-6-2.262 23.159 23.159 0 0 1-7.006-7.646A9.891 9.891 0 0 1 0 4.3a1.906 1.906 0 0 1 .536-1.412L3.154.272a.866.866 0 0 1 1.417.236L6.677 4.5a1.159 1.159 0 0 1-.237 1.319l-.964.964a.474.474 0 0 0-.1.275 8.221 8.221 0 0 0 2.48 3.659c.99.908 2.054 2.138 3.434 2.429a.543.543 0 0 0 .5-.049l1.122-1.141a1.281 1.281 0 0 1 1.358-.2h.02L18.092 14a.914.914 0 0 1 .217 1.436z" style="fill:#303030"/>
</svg>
