<svg xmlns="http://www.w3.org/2000/svg" width="21.118" height="21.139" viewBox="0 0 21.118 21.139">
    <path data-name="패스 602" d="M21.118 19.757a.574.574 0 0 1-.278.454 2.367 2.367 0 0 1-.856.34q-.577.134-1.186.247a13.6 13.6 0 0 1-1.557.175q-.949.062-1.65.093t-1.8.052q-1.1.021-1.67.021H9l-1.67-.021-1.8-.052-1.65-.093-1.56-.173-1.186-.247-.856-.34L0 19.757q.041-1.815 2.269-3.207a14.074 14.074 0 0 1 5.65-1.85v-.681a5.446 5.446 0 0 1-1.856-1.341 6.521 6.521 0 0 1-1.237-2.031 11.868 11.868 0 0 1-.66-2.5A18.811 18.811 0 0 1 3.96 5.28a5.187 5.187 0 0 1 .516-2.351A4.344 4.344 0 0 1 5.9 1.268 6.716 6.716 0 0 1 7.981.32 9.806 9.806 0 0 1 10.559 0a9.806 9.806 0 0 1 2.578.32 6.716 6.716 0 0 1 2.083.949 4.344 4.344 0 0 1 1.423 1.66 5.187 5.187 0 0 1 .516 2.351q0 7.218-3.96 8.785v.635a14.074 14.074 0 0 1 5.651 1.85q2.227 1.392 2.268 3.207z" style="fill:#303030"/>
</svg>
