<svg data-name="그룹 121" xmlns="http://www.w3.org/2000/svg" width="23.891" height="23.891" viewBox="0 0 23.891 23.891">
    <g data-name="그룹 112">
        <path data-name="패스 98" d="M8.683 0a1.05 1.05 0 0 1 1.079 1.027L9.743 7.2l6.493-.016a1.05 1.05 0 0 1 1.079 1.027 1.064 1.064 0 0 1-1.085 1.032l-6.493.016-.02 6.181a1.064 1.064 0 0 1-1.085 1.032 1.05 1.05 0 0 1-1.079-1.027l.019-6.177-6.493.016A1.05 1.05 0 0 1 0 8.257a1.064 1.064 0 0 1 1.085-1.032l6.493-.016.022-6.177A1.064 1.064 0 0 1 8.683 0z" style="fill:#303030" transform="rotate(45 5.824 14.06)"/>
    </g>
</svg>
