<svg xmlns="http://www.w3.org/2000/svg" width="27.825" height="20.489" viewBox="0 0 27.825 20.489">
    <path d="M7.748 11.494a4.569 4.569 0 0 0 4.519-4.622A4.569 4.569 0 0 0 7.748 2.25a4.569 4.569 0 0 0-4.52 4.622 4.569 4.569 0 0 0 4.52 4.622zm3.1 1.321h-.335a6.116 6.116 0 0 1-5.528 0h-.336A4.7 4.7 0 0 0 0 17.569v1.189a1.96 1.96 0 0 0 1.937 1.981h11.621a1.96 1.96 0 0 0 1.942-1.981v-1.189a4.7 4.7 0 0 0-4.653-4.754zm8.522-1.321a3.92 3.92 0 0 0 3.874-3.962 3.875 3.875 0 1 0-7.748 0 3.92 3.92 0 0 0 3.873 3.962zm1.937 1.321h-.153a4.983 4.983 0 0 1-3.567 0h-.153a4.407 4.407 0 0 0-2.248.636 6.114 6.114 0 0 1 1.6 4.119v1.585c0 .091-.02.177-.024.264h7.126a1.96 1.96 0 0 0 1.937-1.981 4.569 4.569 0 0 0-4.519-4.622z" transform="translate(1 -1.25)" style="fill:#303030;stroke:#303030;stroke-width:2px"/>
</svg>
