<svg xmlns="http://www.w3.org/2000/svg" width="102" height="112" viewBox="0 0 102 112">
    <g data-name="그룹 61" transform="translate(0 34.002)">
        <rect data-name="사각형 68" width="86" height="68" rx="5" transform="translate(0 -.002)" style="fill:#303030"/>
        <circle data-name="타원 8" cx="12" cy="12" r="12" transform="translate(31 22.998)" style="fill:#fff"/>
    </g>
    <g data-name="빼기 2" style="fill:none">
        <path d="M52 39H0v-6.882h.018C.006 31.708 0 31.321 0 30.971a33.984 33.984 0 0 1 7.615-21.9C12.526 3.221 19.055 0 26 0s13.474 3.221 18.385 9.072A33.981 33.981 0 0 1 52 30.971c0 .366-.006.741-.018 1.147H52V39z" style="stroke:none" transform="translate(16)"/>
        <path d="m45.984 33-.002-.866L46 30.97c0-6.863-2.206-13.27-6.21-18.042C36.037 8.461 31.14 6 26 6c-5.141 0-10.038 2.46-13.789 6.929C8.206 17.7 6 24.109 6 30.97V33h39.984M52 39H0l.018-6.882C.006 31.708 0 31.321 0 30.971c0-8.272 2.705-16.049 7.615-21.9C12.526 3.222 19.055 0 26 0c6.944 0 13.474 3.221 18.385 9.072C49.295 14.922 52 22.698 52 30.97c0 .366-.006.741-.018 1.147H52V39z" style="fill:#303030;stroke:none" transform="translate(16)"/>
    </g>
    <g data-name="타원 7" transform="translate(60 70)" style="stroke:#303030;stroke-width:2px;fill:#fff">
        <circle cx="21" cy="21" r="21" style="stroke:none"/>
        <circle cx="21" cy="21" r="20" style="fill:none"/>
    </g>
    <path data-name="패스 11" d="m5121.6 2611.171 6.343 7.48.085-.077 5.813-5.2 3.961-3.543 3.963-3.543" transform="translate(-5049.101 -2521.644)" style="stroke:#303030;stroke-width:2px;fill:none"/>
</svg>
