<svg xmlns="http://www.w3.org/2000/svg" width="22.035" height="14.454" viewBox="0 0 22.035 14.454">
    <g transform="translate(-1564.677 -462.418)">
        <circle data-name="타원 1" cx="2.891" cy="2.891" r="2.891" transform="translate(1572.804 466.754)" style="fill:#303030"/>
        <path data-name="패스 2" d="M23.3 15.441a15.433 15.433 0 0 0-4.56-4.541A11.666 11.666 0 0 0 12.5 9a11.131 11.131 0 0 0-5.7 1.631 16.606 16.606 0 0 0-5.035 4.791 1.423 1.423 0 0 0-.029 1.605 15.21 15.21 0 0 0 4.512 4.546 11.5 11.5 0 0 0 6.257 1.88 11.715 11.715 0 0 0 6.252-1.884 15.2 15.2 0 0 0 4.543-4.558 1.435 1.435 0 0 0 0-1.57zm-10.784 5.122a4.337 4.337 0 1 1 4.407-4.336 4.372 4.372 0 0 1-4.407 4.336z" transform="translate(1563.179 453.418)" style="fill:#303030"/>
    </g>
</svg>
