<svg xmlns="http://www.w3.org/2000/svg" width="22.035" height="14.69" viewBox="0 0 22.035 14.69">
    <circle data-name="타원 1" cx="2.938" cy="2.938" r="2.938" transform="translate(8.08 4.407)" style="fill:#e7e7e7"/>
    <path data-name="패스 2" d="M23.3 15.546a15.559 15.559 0 0 0-4.557-4.615A11.532 11.532 0 0 0 12.5 9a11 11 0 0 0-5.7 1.658 16.722 16.722 0 0 0-5.035 4.869 1.465 1.465 0 0 0-.029 1.632 15.338 15.338 0 0 0 4.512 4.62A11.371 11.371 0 0 0 12.5 23.69a11.58 11.58 0 0 0 6.252-1.915 15.331 15.331 0 0 0 4.548-4.633 1.478 1.478 0 0 0 0-1.596zm-10.783 5.206a4.407 4.407 0 1 1 4.407-4.407 4.407 4.407 0 0 1-4.407 4.407z" transform="translate(-1.498 -9)" style="fill:#e7e7e7"/>
</svg>
