<svg xmlns="http://www.w3.org/2000/svg" width="34.532" height="34.532" viewBox="0 0 34.532 34.532">
    <g data-name="그룹 332" transform="translate(-38.737 -265.731)">
        <path data-name="패스 602" d="M29.314 27.425a.8.8 0 0 1-.386.63 3.286 3.286 0 0 1-1.188.472q-.8.186-1.646.344a18.883 18.883 0 0 1-2.161.243q-1.317.086-2.29.129t-2.5.072q-1.532.029-2.319.029H12.5l-2.319-.029-2.5-.072-2.29-.129-2.161-.243-1.646-.344-1.198-.472-.386-.63q.057-2.519 3.149-4.452a19.537 19.537 0 0 1 7.844-2.562v-.945a7.56 7.56 0 0 1-2.576-1.861A9.051 9.051 0 0 1 6.7 14.786a16.474 16.474 0 0 1-.916-3.464A26.112 26.112 0 0 1 5.5 7.329a7.2 7.2 0 0 1 .716-3.264 6.03 6.03 0 0 1 1.975-2.3A9.322 9.322 0 0 1 11.079.444 13.612 13.612 0 0 1 14.657 0a13.612 13.612 0 0 1 3.578.444 9.322 9.322 0 0 1 2.891 1.317 6.03 6.03 0 0 1 1.975 2.3 7.2 7.2 0 0 1 .716 3.264q0 10.02-5.5 12.2v.887a19.537 19.537 0 0 1 7.844 2.562q3.096 1.932 3.153 4.451z" style="fill:#303030" transform="translate(41.223 266.512)"/>
        <rect data-name="사각형 264" width="46.836" height="2" rx="1" transform="rotate(135 -18.693 148.748)" style="fill:red"/>
    </g>
</svg>
