<svg xmlns="http://www.w3.org/2000/svg" width="166.973" height="119.214" viewBox="0 0 166.973 119.214">
    <g data-name="그룹 213">
        <g data-name="그룹 212">
            <path data-name="패스 594" d="M36.676 28a20.676 20.676 0 1 0 20.675 20.676A20.676 20.676 0 0 0 36.676 28zm-6.892 20.676a6.892 6.892 0 1 1 6.892 6.892 6.892 6.892 0 0 1-6.892-6.892z" transform="translate(11.916 -2.046)" style="fill:#e7e7e7;fill-rule:evenodd"/>
            <path data-name="패스 595" d="M20.872 12C9.345 12 0 20.9 0 31.869v79.476c0 10.973 9.345 19.869 20.872 19.869H146.1c11.527 0 20.872-8.9 20.872-19.869V31.869C166.973 20.9 157.628 12 146.1 12zM146.1 25.246H20.872a6.8 6.8 0 0 0-6.957 6.623v79.476a6.8 6.8 0 0 0 6.957 6.623h30.013l47.852-45.56a21.624 21.624 0 0 1 29.519 0l24.8 23.611v-64.15a6.8 6.8 0 0 0-6.956-6.623zm0 92.722H70.56l38.021-36.188a7.208 7.208 0 0 1 9.837 0l33.993 32.36a6.989 6.989 0 0 1-6.311 3.828z" transform="translate(0 -12)" style="fill:#e7e7e7;fill-rule:evenodd"/>
        </g>
    </g>
</svg>
