<svg xmlns="http://www.w3.org/2000/svg" width="53.344" height="38.086" viewBox="0 0 53.344 38.086">
    <g data-name="그룹 213">
        <g data-name="그룹 212">
            <path data-name="패스 594" d="M22.605 28a6.605 6.605 0 1 0 6.605 6.605A6.605 6.605 0 0 0 22.605 28zm-2.2 6.605a2.2 2.2 0 1 1 2.2 2.2 2.2 2.2 0 0 1-2.205-2.2z" transform="translate(-7.082 -19.708)" style="fill:#e7e7e7;fill-rule:evenodd"/>
            <path data-name="패스 595" d="M6.668 12A6.514 6.514 0 0 0 0 18.348v25.39a6.514 6.514 0 0 0 6.668 6.348h40.008a6.514 6.514 0 0 0 6.668-6.348v-25.39A6.514 6.514 0 0 0 46.676 12zm40.008 4.232H6.668a2.171 2.171 0 0 0-2.223 2.116v25.39a2.171 2.171 0 0 0 2.223 2.116h9.589L31.544 31.3a6.908 6.908 0 0 1 9.431 0l7.925 7.542V18.348a2.171 2.171 0 0 0-2.224-2.116zm0 29.622H22.542l12.147-11.561a2.3 2.3 0 0 1 3.143 0l10.86 10.338a2.233 2.233 0 0 1-2.016 1.223z" transform="translate(0 -12)" style="fill:#e7e7e7;fill-rule:evenodd"/>
        </g>
    </g>
</svg>
