<svg xmlns="http://www.w3.org/2000/svg" width="90" height="90" viewBox="0 0 90 90">
    <defs>
        <linearGradient id="yf85hd2aoa" x1=".5" x2=".5" y2="1" gradientUnits="objectBoundingBox">
            <stop offset="0" stop-color="#f7ce38"/>
            <stop offset="1" stop-color="#fc210d"/>
        </linearGradient>
    </defs>
    <g data-name="그룹 216">
        <path data-name="패스 599" d="M45 0A45 45 0 1 1 0 45 45 45 0 0 1 45 0z" style="fill:url(#yf85hd2aoa)"/>
        <path data-name="패스 600" d="M42.276 0A42.276 42.276 0 1 1 0 42.276 42.276 42.276 0 0 1 42.276 0z" transform="translate(2.724 2.724)" style="fill:#fff"/>
    </g>
    <path data-name="합치기 87" d="M-7750.869-4221.665a.994.994 0 0 1-.716-.293l-.708-.708a1 1 0 0 1-.109-.129l-11.891-11.891a1 1 0 0 1 0-1.415l.706-.708a1 1 0 0 1 1.415 0l11.3 11.3 19.79-19.788a1 1 0 0 1 1.415 0l.705.705a1 1 0 0 1 0 1.415l-20.372 20.372a1 1 0 0 1-.112.134l-.708.708a1 1 0 0 1-.708.293z" transform="translate(7795 4278.626)" style="fill:url(#yf85hd2aoa)"/>
</svg>
