<svg xmlns="http://www.w3.org/2000/svg" width="53.613" height="52.482" viewBox="0 0 53.613 52.482">
    <g data-name="그룹 211">
        <path data-name="패스 590" d="M53.078 17.778H6.647A3.161 3.161 0 0 0 3.556 21v31.3a3.161 3.161 0 0 0 3.091 3.226h46.431a3.161 3.161 0 0 0 3.091-3.226V21a3.161 3.161 0 0 0-3.091-3.222zm-.2 34.321H6.844V21.21h46.037z" transform="translate(-3.056 -3.549)" style="fill:#e7e7e7;stroke:#e7e7e7"/>
        <path data-name="패스 591" d="M49.8 5.272a1.67 1.67 0 0 0-1.62-1.716H12.536a1.67 1.67 0 0 0-1.62 1.716v1.716H49.8z" transform="translate(-3.311 -3.056)" style="fill:#e7e7e7;stroke:#e7e7e7"/>
        <path data-name="패스 592" d="M53.074 12.383a1.676 1.676 0 0 0-1.634-1.716H8.958a1.676 1.676 0 0 0-1.634 1.716V14.1h45.75z" transform="translate(-3.186 -3.302)" style="fill:#e7e7e7;stroke:#e7e7e7"/>
        <path data-name="패스 593" d="M22.743 46.9a2.986 2.986 0 0 0 1.6.481 2.883 2.883 0 0 0 1.184-.257l16.763-7.487a2.9 2.9 0 0 0 0-5.32l-16.766-7.482a2.917 2.917 0 0 0-4.1 2.66v14.964a2.917 2.917 0 0 0 1.319 2.441zm1.081-17.4a.5.5 0 0 1 .24-.429.515.515 0 0 1 .275 0 .463.463 0 0 1 .206 0l16.766 7.465a.5.5 0 0 1 .309.481.48.48 0 0 1-.309.463l-16.766 7.477a.481.481 0 0 1-.48 0 .532.532 0 0 1-.24-.429z" transform="translate(-4.904 -3.855)" style="fill:#e7e7e7;stroke:#e7e7e7"/>
    </g>
</svg>
