<svg xmlns="http://www.w3.org/2000/svg" width="50" height="50" viewBox="0 0 50 50">
    <g data-name="그룹 52">
        <g data-name="패스 83" style="fill:#b6d6f2">
            <path d="M25 49.5a24.419 24.419 0 0 1-17.324-7.176A24.419 24.419 0 0 1 .5 25 24.419 24.419 0 0 1 7.676 7.676 24.419 24.419 0 0 1 25 .5a24.419 24.419 0 0 1 17.324 7.176A24.419 24.419 0 0 1 49.5 25a24.419 24.419 0 0 1-7.176 17.324A24.419 24.419 0 0 1 25 49.5z" style="stroke:none"/>
            <path d="M25 1A23.921 23.921 0 0 0 8.03 8.03 23.921 23.921 0 0 0 1 25a23.921 23.921 0 0 0 7.03 16.97A23.921 23.921 0 0 0 25 49a23.921 23.921 0 0 0 16.97-7.03A23.921 23.921 0 0 0 49 25a23.921 23.921 0 0 0-7.03-16.97A23.921 23.921 0 0 0 25 1m0-1c13.807 0 25 11.193 25 25S38.807 50 25 50 0 38.807 0 25 11.193 0 25 0z" style="fill:#dedede;stroke:none"/>
        </g>
        <ellipse data-name="타원 4" cx="6.601" cy="6.967" rx="6.601" ry="6.967" transform="translate(18.661 9.326)" style="fill:#fff"/>
        <path data-name="빼기 1" d="M26.889 13.482H0a14.3 14.3 0 0 1 1.181-5.266 13.944 13.944 0 0 1 2.9-4.283 13.1 13.1 0 0 1 18.717 0 13.945 13.945 0 0 1 2.905 4.283 14.294 14.294 0 0 1 1.181 5.266z" transform="translate(11.806 24.917)" style="fill:#fff"/>
    </g>
</svg>
