<svg xmlns="http://www.w3.org/2000/svg" width="14.999" height="13.821" viewBox="0 0 14.999 13.821">
    <g style="fill:#fff">
        <path d="m-5.31-2211.68.217-3.352.034-.532H-8a2.503 2.503 0 0 1-2.5-2.5V-2222c0-1.378 1.122-2.5 2.5-2.5h9c1.378 0 2.5 1.122 2.5 2.5v3.936c0 1.378-1.122 2.5-2.5 2.5h-4.377l-.138.277-1.795 3.608z" style="stroke:none" transform="translate(11 2225)"/>
        <path d="m-4.65-2214.127.963-1.937H1c1.103 0 2-.897 2-2V-2222c0-1.103-.897-2-2-2h-9c-1.103 0-2 .897-2 2v3.936c0 1.103.897 2 2 2h3.475l-.126 1.937m-.652 2.948c-.265 0-.528-.201-.507-.53l.218-3.355H-8a3 3 0 0 1-3-3V-2222a3 3 0 0 1 3-3h9a3 3 0 0 1 3 3v3.936a3 3 0 0 1-3 3h-4.067l-1.796 3.608a.481.481 0 0 1-.44.277z" style="fill:#a4a4a4;stroke:none" transform="translate(11 2225)"/>
    </g>
</svg>
