<svg xmlns="http://www.w3.org/2000/svg" width="21" height="21" viewBox="0 0 21 21">
    <g data-name="그룹 87">
        <g data-name="합치기 82" style="fill:#fff">
            <path d="M10.5 20.25c-5.376 0-9.75-4.374-9.75-9.75a9.69 9.69 0 0 1 2.83-6.869l.226-.227-.008-.32-.048-1.859 1.745.618.303.107.287-.146A9.645 9.645 0 0 1 10.5.75c5.376 0 9.75 4.374 9.75 9.75s-4.374 9.75-9.75 9.75z" style="stroke:none" transform="rotate(180 10.5 10.5)"/>
            <path d="M10.5 1.5a8.902 8.902 0 0 0-4.075.973l-.573.292-1.324-.469.036 1.409-.451.455A8.944 8.944 0 0 0 1.5 10.5c0 4.963 4.038 9 9 9 4.963 0 9-4.037 9-9s-4.037-9-9-9m0-1.5C16.3 0 21 4.7 21 10.5 21 16.299 16.299 21 10.5 21S0 16.299 0 10.5C0 7.615 1.164 5 3.048 3.103L2.972.154l2.773.982A10.455 10.455 0 0 1 10.5 0z" style="fill:#303030;stroke:none" transform="rotate(180 10.5 10.5)"/>
        </g>
    </g>
</svg>
